<mxfile host="Electron" modified="2024-04-21T12:42:31.057Z" agent="Mozilla/5.0 (Windows NT 10.0; Win64; x64) AppleWebKit/537.36 (KHTML, like Gecko) draw.io/24.2.5 Chrome/120.0.6099.109 Electron/28.1.0 Safari/537.36" etag="_MKf8z-eApUdlKzIAKKK" version="24.2.5" type="device">
  <diagram name="第 1 页" id="cKQ6dwJOEDw4UMwAw6q4">
    <mxGraphModel dx="1562" dy="909" grid="1" gridSize="10" guides="1" tooltips="1" connect="1" arrows="1" fold="1" page="1" pageScale="1" pageWidth="827" pageHeight="1169" math="0" shadow="0">
      <root>
        <mxCell id="0" />
        <mxCell id="1" parent="0" />
        <mxCell id="iag0QAZOmMs-JOOplCx3-5" value="" style="edgeStyle=orthogonalEdgeStyle;rounded=0;orthogonalLoop=1;jettySize=auto;html=1;fontColor=#393C56;fillColor=#f5f5f5;strokeColor=#666666;" edge="1" parent="1" source="iag0QAZOmMs-JOOplCx3-2" target="iag0QAZOmMs-JOOplCx3-4">
          <mxGeometry relative="1" as="geometry" />
        </mxCell>
        <mxCell id="iag0QAZOmMs-JOOplCx3-2" value="&lt;b&gt;&lt;font style=&quot;font-size: 14px;&quot;&gt;GeoDataset&lt;/font&gt;&lt;/b&gt;" style="rounded=1;whiteSpace=wrap;html=1;fillColor=#f5f5f5;fontColor=#333333;strokeColor=#666666;" vertex="1" parent="1">
          <mxGeometry x="80" y="170" width="100" height="50" as="geometry" />
        </mxCell>
        <mxCell id="iag0QAZOmMs-JOOplCx3-15" style="edgeStyle=orthogonalEdgeStyle;rounded=0;orthogonalLoop=1;jettySize=auto;html=1;entryX=0;entryY=0.5;entryDx=0;entryDy=0;fontColor=#393C56;fillColor=#f5f5f5;strokeColor=#666666;" edge="1" parent="1" source="iag0QAZOmMs-JOOplCx3-4" target="iag0QAZOmMs-JOOplCx3-9">
          <mxGeometry relative="1" as="geometry" />
        </mxCell>
        <mxCell id="iag0QAZOmMs-JOOplCx3-4" value="&lt;span style=&quot;font-size: 14px;&quot;&gt;&lt;b&gt;RasterDataset&lt;/b&gt;&lt;/span&gt;" style="rounded=1;whiteSpace=wrap;html=1;fillColor=#f5f5f5;fontColor=#333333;strokeColor=#666666;" vertex="1" parent="1">
          <mxGeometry x="210" y="170" width="120" height="50" as="geometry" />
        </mxCell>
        <mxCell id="iag0QAZOmMs-JOOplCx3-16" style="edgeStyle=orthogonalEdgeStyle;rounded=0;orthogonalLoop=1;jettySize=auto;html=1;exitX=0.5;exitY=1;exitDx=0;exitDy=0;fontColor=#393C56;fillColor=#f5f5f5;strokeColor=#666666;" edge="1" parent="1" source="iag0QAZOmMs-JOOplCx3-9" target="iag0QAZOmMs-JOOplCx3-11">
          <mxGeometry relative="1" as="geometry">
            <mxPoint x="345" y="325" as="sourcePoint" />
          </mxGeometry>
        </mxCell>
        <mxCell id="iag0QAZOmMs-JOOplCx3-9" value="&lt;span style=&quot;font-size: 14px;&quot;&gt;&lt;b&gt;PairDataset&lt;/b&gt;&lt;/span&gt;" style="rounded=1;whiteSpace=wrap;html=1;fillColor=#f5f5f5;fontColor=#333333;strokeColor=#666666;" vertex="1" parent="1">
          <mxGeometry x="370" y="170" width="120" height="50" as="geometry" />
        </mxCell>
        <mxCell id="iag0QAZOmMs-JOOplCx3-17" style="edgeStyle=orthogonalEdgeStyle;rounded=0;orthogonalLoop=1;jettySize=auto;html=1;exitX=0.5;exitY=1;exitDx=0;exitDy=0;entryX=0.5;entryY=0;entryDx=0;entryDy=0;fontColor=#393C56;fillColor=#f5f5f5;strokeColor=#666666;" edge="1" parent="1" source="iag0QAZOmMs-JOOplCx3-11" target="iag0QAZOmMs-JOOplCx3-12">
          <mxGeometry relative="1" as="geometry" />
        </mxCell>
        <mxCell id="iag0QAZOmMs-JOOplCx3-18" style="edgeStyle=orthogonalEdgeStyle;rounded=0;orthogonalLoop=1;jettySize=auto;html=1;exitX=0.5;exitY=1;exitDx=0;exitDy=0;entryX=0.5;entryY=0;entryDx=0;entryDy=0;fontColor=#393C56;fillColor=#f5f5f5;strokeColor=#666666;" edge="1" parent="1" source="iag0QAZOmMs-JOOplCx3-11" target="iag0QAZOmMs-JOOplCx3-13">
          <mxGeometry relative="1" as="geometry" />
        </mxCell>
        <mxCell id="iag0QAZOmMs-JOOplCx3-19" style="edgeStyle=orthogonalEdgeStyle;rounded=0;orthogonalLoop=1;jettySize=auto;html=1;exitX=0.5;exitY=1;exitDx=0;exitDy=0;entryX=0.5;entryY=0;entryDx=0;entryDy=0;fontColor=#393C56;fillColor=#f5f5f5;strokeColor=#666666;" edge="1" parent="1" source="iag0QAZOmMs-JOOplCx3-11" target="iag0QAZOmMs-JOOplCx3-14">
          <mxGeometry relative="1" as="geometry" />
        </mxCell>
        <mxCell id="iag0QAZOmMs-JOOplCx3-11" value="&lt;span style=&quot;font-size: 14px;&quot;&gt;&lt;b&gt;InterferogramDataset&lt;/b&gt;&lt;/span&gt;" style="rounded=1;whiteSpace=wrap;html=1;fillColor=#f5f5f5;fontColor=#333333;strokeColor=#666666;" vertex="1" parent="1">
          <mxGeometry x="335" y="260" width="190" height="50" as="geometry" />
        </mxCell>
        <mxCell id="iag0QAZOmMs-JOOplCx3-12" value="&lt;span style=&quot;font-size: 14px;&quot;&gt;&lt;b&gt;HyP3S1&lt;/b&gt;&lt;/span&gt;" style="rounded=1;whiteSpace=wrap;html=1;fillColor=#f5f5f5;fontColor=#333333;strokeColor=#666666;" vertex="1" parent="1">
          <mxGeometry x="230" y="350" width="120" height="50" as="geometry" />
        </mxCell>
        <mxCell id="iag0QAZOmMs-JOOplCx3-13" value="&lt;span style=&quot;font-size: 14px;&quot;&gt;&lt;b&gt;HyP3S1Burst&lt;/b&gt;&lt;/span&gt;" style="rounded=1;whiteSpace=wrap;html=1;fillColor=#f5f5f5;fontColor=#333333;strokeColor=#666666;" vertex="1" parent="1">
          <mxGeometry x="370" y="350" width="120" height="50" as="geometry" />
        </mxCell>
        <mxCell id="iag0QAZOmMs-JOOplCx3-14" value="&lt;span style=&quot;font-size: 14px;&quot;&gt;&lt;b&gt;LiCSAR&lt;/b&gt;&lt;/span&gt;" style="rounded=1;whiteSpace=wrap;html=1;fillColor=#f5f5f5;fontColor=#333333;strokeColor=#666666;" vertex="1" parent="1">
          <mxGeometry x="510" y="350" width="120" height="50" as="geometry" />
        </mxCell>
      </root>
    </mxGraphModel>
  </diagram>
</mxfile>
